<?xml version="1.0" standalone="no"?>
<!DOCTYPE svg PUBLIC "-//W3C//DTD SVG 20010904//EN"
 "http://www.w3.org/TR/2001/REC-SVG-20010904/DTD/svg10.dtd">
<svg version="1.0" xmlns="http://www.w3.org/2000/svg"
 width="298.000000pt" height="169.000000pt" viewBox="0 0 298.000000 169.000000"
 preserveAspectRatio="xMidYMid meet">

<g transform="translate(0.000000,169.000000) scale(0.100000,-0.100000)"
fill="#000000" stroke="none">
<path d="M2400 1682 c0 -4 14 -50 30 -102 61 -192 50 -309 -33 -349 -23 -11
-54 -23 -69 -26 -52 -13 -119 -84 -159 -170 -40 -84 -39 -105 6 -105 18 0 27
11 45 55 25 62 84 127 132 145 116 43 145 67 169 137 14 42 18 163 6 206 -13
48 16 31 105 -61 104 -108 175 -222 218 -350 28 -82 34 -115 38 -217 3 -92 0
-135 -13 -184 -46 -177 -153 -293 -323 -351 -76 -26 -77 -26 -80 -63 -4 -42
-5 -42 71 -22 184 48 321 180 384 369 23 71 27 97 27 216 1 164 -20 253 -94
406 -76 157 -186 284 -350 406 -74 54 -110 74 -110 60z"/>
<path d="M580 500 l0 -270 65 0 65 0 0 100 0 100 115 0 115 0 0 -100 0 -100
70 0 70 0 0 223 c0 191 -2 227 -18 257 -28 56 -44 60 -274 60 l-208 0 0 -270z
m344 194 c12 -12 16 -38 16 -115 l0 -99 -115 0 -115 0 0 115 0 115 99 0 c77 0
103 -4 115 -16z"/>
<path d="M1880 500 l0 -270 75 0 75 0 0 119 0 120 156 3 c194 4 194 4 194 135
0 97 -16 136 -63 153 -17 5 -120 10 -233 10 l-204 0 0 -270z m344 194 c19 -18
22 -114 6 -145 -9 -17 -22 -19 -105 -19 l-95 0 0 90 0 90 89 0 c68 0 93 -4
105 -16z"/>
<path d="M10 516 l0 -245 26 -20 c25 -20 39 -21 230 -21 l204 0 0 30 0 30
-162 2 -163 3 -3 233 -2 232 -65 0 -65 0 0 -244z"/>
<path d="M62 73 c-2 -42 -2 -43 31 -42 29 2 29 2 5 6 -23 4 -27 10 -31 41 l-4
37 -1 -42z"/>
<path d="M631 74 c-7 -19 -10 -38 -7 -41 3 -4 6 -1 6 5 0 16 32 15 49 -1 11
-10 13 -9 7 6 -3 11 -9 30 -12 43 -9 35 -28 29 -43 -12z m28 -13 c-15 -5 -22
6 -14 19 6 9 10 9 16 -1 5 -8 4 -15 -2 -18z"/>
<path d="M933 70 c0 -25 2 -35 4 -22 2 12 11 22 18 22 7 0 16 -10 18 -22 4
-20 4 -19 6 5 1 20 -4 27 -18 27 -11 0 -22 8 -24 18 -3 9 -5 -3 -4 -28z"/>
<path d="M1921 68 c1 -24 3 -36 6 -27 2 10 13 19 24 22 28 7 21 41 -9 45 -20
3 -22 -1 -21 -40z m39 17 c0 -8 -7 -15 -15 -15 -8 0 -15 7 -15 15 0 8 7 15 15
15 8 0 15 -7 15 -15z"/>
<path d="M1992 70 c-1 -36 1 -41 8 -22 5 12 14 22 20 22 6 0 15 -10 20 -22 7
-19 9 -14 8 22 0 25 -2 37 -5 28 -2 -10 -13 -18 -23 -18 -10 0 -21 8 -23 18
-3 9 -5 -3 -5 -28z"/>
<path d="M2071 68 c1 -24 3 -36 6 -27 2 10 13 19 24 22 28 7 21 41 -9 45 -20
3 -22 -1 -21 -40z m39 17 c0 -8 -7 -15 -15 -15 -8 0 -15 7 -15 15 0 8 7 15 15
15 8 0 15 -7 15 -15z"/>
<path d="M2191 68 c1 -24 3 -36 6 -27 2 10 13 19 24 22 28 7 21 41 -9 45 -20
3 -22 -1 -21 -40z m31 17 c0 -5 -5 -11 -11 -13 -6 -2 -11 4 -11 13 0 9 5 15
11 13 6 -2 11 -8 11 -13z"/>
<path d="M2423 70 c0 -25 2 -35 4 -22 2 12 2 32 0 45 -2 12 -4 2 -4 -23z"/>
<path d="M2511 68 c1 -24 3 -36 6 -27 2 10 13 19 24 22 28 7 21 41 -9 45 -20
3 -22 -1 -21 -40z m39 17 c0 -8 -7 -15 -15 -15 -8 0 -15 7 -15 15 0 8 7 15 15
15 8 0 15 -7 15 -15z"/>
<path d="M2672 70 c-1 -36 1 -41 8 -22 5 12 14 22 19 22 5 0 12 -10 14 -22 4
-16 5 -13 4 7 -2 22 -6 29 -19 27 -9 -1 -19 5 -21 15 -3 10 -5 -2 -5 -27z"/>
<path d="M2637 92 c-7 -10 4 -62 12 -62 4 0 5 16 3 35 -4 36 -7 41 -15 27z"/>
<path d="M142 60 c0 -19 2 -27 5 -17 2 9 2 25 0 35 -3 9 -5 1 -5 -18z"/>
<path d="M170 58 c0 -15 5 -28 10 -28 6 0 10 9 10 20 0 11 5 20 10 20 6 0 10
-9 10 -20 0 -11 5 -20 10 -20 11 0 14 50 3 51 -5 0 -18 2 -30 3 -19 2 -23 -2
-23 -26z"/>
<path d="M251 63 c-1 -29 2 -33 24 -33 22 0 25 4 24 33 -2 30 -2 30 -6 5 -6
-36 -30 -36 -36 0 -4 25 -4 25 -6 -5z"/>
<path d="M328 74 c8 -15 8 -24 1 -31 -8 -8 -4 -11 12 -10 18 2 24 8 24 25 0
12 -5 20 -11 18 -6 -2 -17 1 -24 7 -10 10 -10 8 -2 -9z"/>
<path d="M711 41 c1 -25 3 -38 6 -28 2 9 13 17 24 17 43 0 33 52 -11 55 -17 1
-20 -4 -19 -44z m47 17 c-3 -7 -11 -13 -18 -13 -7 0 -15 6 -17 13 -3 7 4 12
17 12 13 0 20 -5 18 -12z"/>
<path d="M795 80 c-3 -6 1 -7 9 -4 9 3 16 2 16 -4 0 -5 -9 -12 -21 -15 -14 -4
-18 -10 -13 -18 6 -10 9 -10 12 -1 2 7 8 12 13 12 6 0 7 -4 4 -10 -3 -5 1 -10
9 -10 19 0 21 31 4 48 -15 15 -25 15 -33 2z"/>
<path d="M864 76 c-22 -16 -12 -46 15 -46 11 0 22 4 25 9 4 5 -3 7 -15 4 -17
-5 -20 -2 -17 13 2 11 11 18 21 16 21 -3 23 4 3 11 -8 3 -22 0 -32 -7z"/>
<path d="M1011 80 c-22 -13 -8 -45 19 -47 21 -2 22 -1 5 5 -18 6 -21 14 -16
38 0 4 8 1 16 -6 9 -7 15 -8 15 -2 0 14 -24 22 -39 12z"/>
<path d="M2324 79 c-4 -7 -3 -9 4 -5 6 3 13 2 16 -3 3 -5 -3 -11 -14 -14 -21
-5 -28 -27 -9 -27 5 0 7 5 4 10 -3 6 1 10 10 10 9 0 13 -4 10 -10 -3 -5 -1
-10 4 -10 16 0 13 36 -3 49 -11 9 -16 9 -22 0z"/>
<path d="M2818 83 c-12 -3 -18 -13 -17 -31 2 -24 2 -24 6 -4 2 12 11 22 18 22
7 0 16 -10 18 -22 4 -20 4 -20 6 4 1 30 -6 36 -31 31z"/>
<path d="M2254 65 c-8 -21 4 -35 29 -34 22 1 22 1 1 7 -13 4 -20 14 -18 25 3
21 -4 23 -12 2z"/>
<path d="M2371 53 c0 -16 3 -22 6 -13 3 8 10 21 16 28 7 8 5 12 -7 12 -11 0
-16 -8 -15 -27z"/>
<path d="M2580 58 c5 -15 7 -35 4 -43 -13 -32 7 -13 21 21 17 42 19 57 4 31
-10 -18 -11 -18 -25 0 -13 16 -13 15 -4 -9z"/>
<path d="M2740 72 c0 -6 10 -8 21 -5 16 4 20 2 17 -8 -3 -8 -13 -13 -22 -13
-9 1 -16 -3 -16 -8 0 -5 10 -8 23 -6 14 2 22 10 22 23 0 13 -8 21 -22 23 -13
2 -23 -1 -23 -6z"/>
</g>
</svg>
