<?xml version="1.0" standalone="no"?>
<!DOCTYPE svg PUBLIC "-//W3C//DTD SVG 20010904//EN"
 "http://www.w3.org/TR/2001/REC-SVG-20010904/DTD/svg10.dtd">
<svg version="1.0" xmlns="http://www.w3.org/2000/svg"
 width="678.000000pt" height="245.000000pt" viewBox="0 0 678.000000 245.000000"
 preserveAspectRatio="xMidYMid meet">

<g transform="translate(0.000000,245.000000) scale(0.100000,-0.100000)"
fill="#000000" stroke="none">
<path d="M1045 2209 c-311 -48 -547 -305 -571 -622 -9 -115 14 -225 73 -346
37 -77 59 -108 122 -170 134 -133 261 -190 442 -199 277 -13 516 126 639 370
108 216 91 474 -45 678 -139 209 -410 328 -660 289z m105 -128 c0 -6 25 -40
56 -76 127 -149 178 -277 177 -445 -1 -156 -41 -254 -153 -375 -49 -53 -59
-69 -65 -112 -3 -27 -5 -53 -3 -59 2 -5 -1 -11 -7 -14 -5 -3 -15 24 -21 60
-11 61 -15 69 -77 133 -125 127 -178 284 -156 457 18 148 74 269 174 375 59
63 75 75 75 56z"/>
<path d="M2515 2210 c-249 -36 -463 -221 -541 -465 -54 -170 -40 -333 43 -504
75 -156 213 -278 385 -338 106 -38 273 -44 381 -14 306 84 507 344 507 655 0
198 -80 374 -227 505 -61 55 -208 132 -283 150 -68 15 -197 21 -265 11z m-62
-444 c68 -28 115 -104 132 -213 l7 -43 -184 -2 -183 -3 4 -30 c8 -76 64 -125
141 -125 53 0 106 29 120 65 8 20 16 25 44 25 19 0 37 -4 40 -8 11 -19 -34
-92 -75 -119 -38 -25 -51 -28 -130 -28 -81 0 -90 2 -130 30 -25 18 -53 50 -67
77 -30 58 -40 159 -22 222 15 54 68 119 119 146 43 23 137 26 184 6z m327 -66
c29 -44 56 -83 60 -85 4 -3 34 33 66 80 l59 85 53 0 52 0 -86 -115 c-56 -74
-83 -119 -78 -127 8 -13 158 -221 177 -245 7 -10 -3 -13 -47 -13 l-55 0 -62
93 c-34 50 -65 96 -70 101 -4 4 -38 -37 -75 -93 l-67 -101 -49 0 c-26 0 -48 2
-48 5 0 3 41 61 90 131 l91 125 -78 106 c-43 59 -82 113 -86 120 -6 10 4 13
46 13 l54 0 53 -80z"/>
<path d="M2293 1691 c-32 -20 -63 -67 -63 -96 0 -13 20 -15 135 -15 74 0 135
2 135 5 0 19 -31 74 -53 94 -37 33 -111 39 -154 12z"/>
<path d="M3985 2210 c-257 -39 -469 -226 -546 -480 -18 -57 -23 -100 -24 -180
0 -129 14 -188 72 -309 37 -77 59 -108 122 -170 134 -133 261 -190 442 -199
277 -13 516 126 639 370 108 216 91 474 -45 678 -139 209 -409 328 -660 290z
m-12 -240 c23 -12 58 -35 77 -50 l35 -28 45 36 c98 76 169 90 220 45 38 -35
52 -104 40 -189 -4 -32 -5 -62 -1 -65 3 -4 22 -12 41 -18 50 -16 125 -70 144
-102 9 -15 16 -42 16 -60 0 -45 -68 -109 -148 -140 -57 -22 -61 -25 -55 -49
13 -50 7 -164 -10 -197 -41 -77 -131 -73 -241 12 -32 24 -54 35 -61 29 -7 -5
-31 -24 -55 -42 -24 -18 -65 -39 -93 -47 -96 -29 -149 22 -149 144 -1 36 2 80
6 96 6 29 5 31 -55 54 -81 31 -149 95 -149 140 0 18 7 45 16 60 18 31 91 82
144 101 19 7 38 16 42 19 3 3 2 33 -3 65 -21 129 30 224 113 213 21 -3 57 -15
81 -27z"/>
<path d="M3846 1935 c-20 -21 -29 -90 -19 -150 5 -27 11 -49 13 -48 3 1 32 5
65 9 58 6 62 9 103 60 l43 53 -43 32 c-78 57 -133 72 -162 44z"/>
<path d="M4232 1935 c-19 -8 -51 -29 -73 -46 l-39 -30 43 -53 c44 -55 47 -57
162 -67 14 -2 28 89 20 138 -10 71 -44 88 -113 58z"/>
<path d="M4062 1797 c-12 -13 -22 -26 -22 -30 0 -4 20 -7 45 -7 51 0 55 7 22
38 l-23 22 -22 -23z"/>
<path d="M3951 1641 c-23 -38 -43 -76 -46 -83 -3 -7 14 -47 37 -88 49 -85 70
-96 173 -87 68 6 79 16 127 110 l29 58 -44 77 -45 77 -95 3 -96 3 -40 -70z
m200 -30 c32 -33 37 -67 14 -110 -29 -57 -104 -64 -151 -14 -53 57 -9 153 71
153 27 0 44 -8 66 -29z"/>
<path d="M3878 1693 c-31 -5 -33 -14 -15 -57 l13 -30 26 47 c15 26 21 46 15
46 -7 -1 -24 -4 -39 -6z"/>
<path d="M4267 1656 l28 -47 12 28 c17 39 16 53 -4 53 -10 0 -28 3 -41 6 -23
7 -23 6 5 -40z"/>
<path d="M3733 1645 c-104 -47 -129 -101 -70 -151 60 -51 147 -80 147 -50 0 8
8 34 19 58 18 43 18 44 -4 103 -12 32 -26 60 -31 61 -5 2 -33 -8 -61 -21z"/>
<path d="M4363 1653 c-3 -10 -14 -38 -23 -63 -16 -44 -16 -47 5 -100 13 -30
27 -56 33 -58 17 -5 93 31 130 62 59 51 33 105 -73 152 -66 29 -64 28 -72 7z"/>
<path d="M3861 1448 c-9 -24 -8 -34 1 -40 14 -8 58 -11 58 -4 0 7 -41 76 -45
76 -2 0 -8 -14 -14 -32z"/>
<path d="M4272 1446 c-27 -46 -27 -46 1 -46 41 0 50 13 35 50 l-14 34 -22 -38z"/>
<path d="M3826 1300 c-9 -77 7 -137 39 -152 20 -9 33 -6 77 16 29 14 66 37 82
50 l29 24 -44 50 c-39 46 -48 52 -104 61 -34 6 -64 11 -67 11 -3 0 -8 -27 -12
-60z"/>
<path d="M4253 1347 c-42 -10 -59 -20 -94 -60 -23 -26 -40 -49 -38 -51 82 -70
157 -103 190 -86 28 16 42 74 34 146 -7 71 -5 70 -92 51z"/>
<path d="M4040 1330 c1 -10 39 -50 48 -50 8 0 42 42 42 52 0 2 -20 3 -45 3
-25 0 -45 -2 -45 -5z"/>
<path d="M5400 2195 c-188 -51 -351 -185 -433 -356 -54 -112 -70 -183 -69
-304 2 -381 322 -682 702 -662 483 26 780 527 570 962 -80 165 -217 284 -405
350 -69 25 -289 31 -365 10z m324 -25 c236 -60 419 -249 472 -486 21 -99 15
-252 -15 -337 -66 -187 -198 -330 -371 -400 -88 -36 -140 -46 -236 -47 -118 0
-187 16 -293 67 -324 156 -453 546 -289 873 134 265 442 404 732 330z"/>
<path d="M935 578 c-3 -13 -4 -93 -3 -178 l3 -155 30 0 30 0 5 153 5 153 49
-143 c27 -79 54 -149 59 -156 6 -7 21 -12 35 -10 20 3 29 15 53 83 16 44 41
114 56 155 l28 75 5 -155 5 -155 28 -3 27 -3 0 181 0 181 -52 -3 -53 -3 -49
-128 c-31 -78 -52 -123 -57 -115 -4 7 -25 60 -45 118 -20 58 -41 111 -47 118
-5 6 -31 12 -58 12 -42 0 -49 -3 -54 -22z"/>
<path d="M2517 593 c-13 -12 -8 -328 5 -341 8 -8 46 -12 105 -12 93 0 93 0 93
25 0 24 -2 25 -70 25 l-70 0 0 60 0 60 60 0 c53 0 60 2 60 20 0 18 -7 20 -60
20 l-60 0 0 50 0 50 70 0 c68 0 70 1 70 25 0 25 0 25 -98 25 -54 0 -102 -3
-105 -7z"/>
<path d="M3954 587 c-2 -7 -3 -87 -2 -177 l3 -165 30 0 30 0 3 73 3 73 32 -3
c29 -3 35 -10 67 -75 30 -64 38 -73 62 -73 15 0 29 3 32 8 7 11 -61 152 -73
152 -19 0 -12 18 9 25 30 10 53 61 45 102 -10 53 -51 73 -153 73 -58 0 -84 -4
-88 -13z m164 -49 c7 -7 12 -24 12 -39 0 -34 -32 -59 -77 -59 l-33 0 0 55 0
55 43 0 c24 0 48 -5 55 -12z"/>
</g>
</svg>
