<?xml version="1.0" standalone="no"?>
<!DOCTYPE svg PUBLIC "-//W3C//DTD SVG 20010904//EN"
 "http://www.w3.org/TR/2001/REC-SVG-20010904/DTD/svg10.dtd">
<svg version="1.0" xmlns="http://www.w3.org/2000/svg"
 width="299.000000pt" height="168.000000pt" viewBox="0 0 299.000000 168.000000"
 preserveAspectRatio="xMidYMid meet">

<g transform="translate(0.000000,168.000000) scale(0.100000,-0.100000)"
fill="#000000" stroke="none">
<path d="M690 1527 l-165 -63 -3 -187 c-1 -112 1 -187 7 -187 5 0 30 9 55 20
l46 19 0 155 0 154 108 26 c60 14 111 26 115 26 4 0 7 -101 7 -225 l0 -225
-27 0 c-16 0 -71 7 -123 15 -153 24 -153 17 0 -41 160 -60 144 -59 288 -18
l52 15 0 262 0 262 -82 24 c-46 13 -90 25 -98 27 -8 2 -89 -25 -180 -59z"/>
<path d="M1723 1480 c-29 -12 -43 -40 -43 -89 0 -37 -2 -41 -25 -41 -32 0 -34
-27 -2 -32 21 -3 22 -7 25 -115 2 -105 4 -113 22 -113 19 0 20 7 20 115 l0
115 55 0 55 0 0 -115 c0 -108 1 -115 20 -115 19 0 20 7 20 115 l0 115 30 0
c20 0 30 5 30 15 0 10 -10 15 -30 15 -28 0 -30 2 -30 38 0 43 14 62 47 62 16
0 23 6 23 20 0 25 -29 26 -70 5 -29 -15 -37 -31 -42 -90 -3 -29 -5 -30 -55
-33 l-53 -3 0 38 c0 44 14 63 47 63 16 0 23 6 23 20 0 22 -27 26 -67 10z"/>
<path d="M1977 1474 c-12 -12 -8 -42 6 -47 21 -8 39 8 35 29 -3 19 -29 30 -41
18z"/>
<path d="M1369 1461 c-93 -30 -142 -130 -118 -243 12 -56 53 -109 99 -128 44
-18 140 -9 177 18 98 70 97 271 -2 332 -38 23 -116 34 -156 21z m127 -50 c61
-37 83 -170 39 -237 -38 -58 -129 -77 -183 -37 -84 61 -82 217 4 273 37 25
100 25 140 1z"/>
<path d="M2133 1340 c-117 -71 -79 -260 52 -260 56 0 75 8 75 31 0 16 -4 17
-26 9 -42 -16 -64 -12 -95 19 -24 25 -29 37 -29 81 0 41 5 56 26 77 23 22 32
25 80 21 40 -3 54 -1 54 8 0 36 -87 45 -137 14z"/>
<path d="M2371 1347 c-87 -44 -94 -213 -11 -254 55 -28 160 -7 160 32 0 11 -7
11 -40 -2 -50 -20 -95 -9 -123 29 -35 47 -19 58 83 58 l90 0 0 35 c0 19 -5 46
-12 60 -22 48 -95 69 -147 42z m104 -50 c8 -12 15 -29 15 -39 0 -16 -10 -18
-68 -18 -38 0 -71 3 -75 6 -12 12 18 57 47 69 35 15 62 9 81 -18z"/>
<path d="M1980 1220 c0 -123 1 -130 20 -130 19 0 20 7 20 130 0 123 -1 130
-20 130 -19 0 -20 -7 -20 -130z"/>
<path d="M250 789 c-85 -15 -156 -28 -158 -28 -1 -1 -1 -108 0 -238 l3 -237
155 -27 c199 -35 190 -36 190 1 l0 29 123 3 122 3 0 230 0 230 -122 3 -123 3
0 29 c0 36 12 36 -190 -1z m418 -266 l-3 -218 -110 0 -110 0 -3 28 -3 27 90 0
c74 0 91 3 91 15 0 12 -17 15 -90 15 -72 0 -90 3 -90 15 0 11 19 15 87 17 58
2 88 7 91 16 3 9 -19 12 -87 12 -84 0 -91 1 -91 20 0 19 7 20 90 20 53 0 90 4
90 10 0 6 -37 10 -90 10 -83 0 -90 1 -90 20 0 19 7 20 90 20 53 0 90 4 90 10
0 6 -37 10 -90 10 -83 0 -90 1 -90 20 0 19 7 20 90 20 53 0 90 4 90 10 0 6
-37 10 -90 10 -83 0 -90 1 -90 20 0 19 7 20 90 20 53 0 90 4 90 10 0 6 -37 10
-90 10 -89 0 -90 0 -90 25 l0 25 115 0 115 0 -2 -217z m-388 50 c16 -83 16
-83 24 -28 11 74 15 85 37 85 24 0 24 -3 -2 -111 -19 -81 -23 -89 -44 -89 -21
0 -25 7 -36 58 l-12 57 -15 -57 c-14 -55 -24 -67 -48 -50 -6 4 -16 41 -24 82
-7 41 -15 81 -17 88 -3 7 3 12 15 12 17 0 22 -8 27 -37 11 -65 17 -70 27 -23
9 40 29 70 49 70 4 0 13 -26 19 -57z"/>
<path d="M978 792 l-148 -26 0 -236 0 -236 158 -27 c197 -34 192 -34 192 3 l0
29 123 3 122 3 3 220 c2 198 1 221 -15 232 -11 9 -54 13 -125 13 l-108 0 0 25
c0 31 -7 31 -202 -3z m432 -257 l0 -215 -115 0 c-108 0 -115 1 -115 20 0 16 7
20 30 20 23 0 30 5 30 19 0 14 -8 21 -27 23 -17 2 -28 9 -28 18 0 9 11 16 28
18 19 2 27 9 27 23 0 14 -7 19 -30 19 -20 0 -30 5 -30 15 0 10 10 15 30 15 23
0 30 5 30 19 0 14 -8 21 -27 23 -17 2 -29 10 -31 21 -3 13 3 17 27 17 24 0 31
4 31 20 0 16 -7 20 -30 20 -20 0 -30 5 -30 15 0 10 10 15 30 15 23 0 30 5 30
19 0 14 -8 21 -27 23 -20 2 -29 9 -31 26 -3 22 -2 22 112 22 l116 0 0 -215z
m-330 110 c0 -3 -12 -29 -26 -57 l-26 -52 26 -53 c14 -29 26 -56 26 -58 0 -3
-12 -5 -26 -5 -21 0 -29 8 -41 40 l-16 40 -18 -40 c-17 -38 -41 -51 -54 -30
-3 5 5 31 19 57 l24 48 -24 45 c-30 58 -29 62 3 58 20 -2 29 -11 38 -37 l11
-35 17 42 c14 34 22 42 42 42 14 0 25 -2 25 -5z"/>
<path d="M1270 680 c0 -17 7 -20 45 -20 38 0 45 3 45 20 0 17 -7 20 -45 20
-38 0 -45 -3 -45 -20z"/>
<path d="M1270 610 c0 -17 7 -20 45 -20 38 0 45 3 45 20 0 17 -7 20 -45 20
-38 0 -45 -3 -45 -20z"/>
<path d="M1270 530 c0 -17 7 -20 45 -20 38 0 45 3 45 20 0 17 -7 20 -45 20
-38 0 -45 -3 -45 -20z"/>
<path d="M1270 460 c0 -17 7 -20 45 -20 38 0 45 3 45 20 0 17 -7 20 -45 20
-38 0 -45 -3 -45 -20z"/>
<path d="M1270 380 c0 -17 7 -20 45 -20 38 0 45 3 45 20 0 17 -7 20 -45 20
-38 0 -45 -3 -45 -20z"/>
<path d="M1738 792 l-148 -26 0 -236 0 -237 163 -27 c89 -14 168 -26 175 -26
8 0 12 20 12 65 l0 64 123 3 122 3 3 152 3 152 -123 3 -123 3 -3 68 c-3 80 13
77 -204 39z m432 -134 c0 -7 -33 -43 -74 -80 l-73 -67 -42 43 c-33 34 -41 49
-41 79 l0 37 115 0 c85 0 115 -3 115 -12z m-341 -45 c20 -23 23 -34 19 -85 -5
-71 -34 -108 -84 -108 -54 0 -86 36 -92 103 -4 54 -3 58 32 93 31 31 41 36 69
30 17 -3 43 -18 56 -33z m341 -108 l0 -125 -115 0 -115 0 0 90 c0 50 4 90 8
90 5 0 21 -13 37 -30 16 -16 34 -30 40 -30 6 0 40 29 75 65 35 36 66 65 67 65
2 0 3 -56 3 -125z"/>
<path d="M1733 588 c-17 -22 -22 -58 -12 -88 13 -35 31 -43 58 -24 37 27 23
124 -18 124 -10 0 -23 -6 -28 -12z"/>
<path d="M2510 794 c-80 -13 -155 -26 -167 -29 l-23 -5 0 -235 c0 -214 1 -234
18 -239 16 -5 313 -56 326 -56 3 0 6 16 6 35 l0 34 118 3 117 3 3 223 2 222
-120 0 -120 0 0 29 c0 17 -3 32 -7 34 -5 2 -73 -6 -153 -19z m390 -264 l0
-210 -115 0 -115 0 0 30 0 30 80 0 c47 0 80 4 80 10 0 6 -33 10 -80 10 -73 0
-80 2 -80 20 0 18 7 20 80 20 47 0 80 4 80 10 0 6 -33 10 -80 10 -73 0 -80 2
-80 20 0 15 7 20 25 20 36 0 71 19 84 47 15 34 16 33 -34 33 l-45 0 0 45 c0
33 -4 45 -15 45 -10 0 -15 11 -15 35 l0 35 115 0 115 0 0 -210z m-356 88 c9
-12 16 -35 16 -51 0 -33 -40 -77 -70 -77 -17 0 -20 -6 -20 -40 0 -40 -5 -45
-34 -34 -13 5 -16 25 -16 115 l0 109 54 0 c45 0 58 -4 70 -22z"/>
<path d="M2720 644 l0 -44 45 0 c38 0 43 3 38 18 -9 26 -42 59 -64 65 -17 4
-19 0 -19 -39z"/>
<path d="M2470 565 c0 -33 2 -35 21 -25 24 14 22 53 -3 58 -15 3 -18 -4 -18
-33z"/>
</g>
</svg>
